<svg width="18" height="18" viewBox="0 0 18 18" fill="none" xmlns="http://www.w3.org/2000/svg">
<path d="M5.99927 13.4985H11.9993V11.9985H5.99927V13.4985ZM5.99927 10.4985H11.9993V8.99854H5.99927V10.4985ZM4.49927 16.4985C4.08677 16.4985 3.73377 16.3518 3.44027 16.0583C3.14677 15.7648 2.99977 15.4115 2.99927 14.9985V2.99854C2.99927 2.58604 3.14627 2.23304 3.44027 1.93954C3.73427 1.64604 4.08727 1.49904 4.49927 1.49854H10.4993L14.9993 5.99854V14.9985C14.9993 15.411 14.8525 15.7643 14.559 16.0583C14.2655 16.3523 13.9123 16.499 13.4993 16.4985H4.49927ZM9.74927 6.74854H13.4993L9.74927 2.99854V6.74854Z" fill="black"/>
</svg>
