<svg width="24" height="24" viewBox="0 0 24 24" fill="none" xmlns="http://www.w3.org/2000/svg">
<path fill-rule="evenodd" clip-rule="evenodd" d="M1.00001 5.8556C1.00001 5.38307 1.38308 5 1.85561 5H21.488C21.9606 5 22.3436 5.38307 22.3436 5.8556C22.3436 6.32814 21.9606 6.7112 21.488 6.7112H1.85561C1.38308 6.7112 1.00001 6.32814 1.00001 5.8556ZM5.90813 12.3557C5.90813 11.8832 6.2912 11.5001 6.76373 11.5001H21.488C21.9606 11.5001 22.3436 11.8832 22.3436 12.3557C22.3436 12.8282 21.9606 13.2113 21.488 13.2113H6.76373C6.2912 13.2113 5.90813 12.8282 5.90813 12.3557ZM1.85562 18.0001C1.38308 18.0001 1.00002 18.3832 1.00002 18.8557C1.00002 19.3282 1.38308 19.7113 1.85562 19.7113H11.6718C12.1444 19.7113 12.5274 19.3282 12.5274 18.8557C12.5274 18.3832 12.1444 18.0001 11.6718 18.0001H1.85562Z" fill="#242328"/>
</svg>
