<svg width="186" height="21" viewBox="0 0 186 21" fill="none" xmlns="http://www.w3.org/2000/svg">
<g filter="url(#filter0_d_1_162)">
<path d="M176.923 19.6694C176.609 19.6694 176.453 19.4787 176.453 19.0973V12.3967L172.308 0.915448C172.189 0.525534 172.286 0.330578 172.6 0.330578H177.114C177.512 0.330578 177.745 0.525534 177.813 0.915448L178.843 7.03115L179.085 9.61221L179.326 7.03115L180.369 0.915448C180.453 0.525534 180.691 0.330578 181.081 0.330578H185.645C185.976 0.330578 186.065 0.521296 185.912 0.902733L181.716 12.4094V19.0973C181.716 19.4787 181.551 19.6694 181.221 19.6694H176.923Z" fill="#ED1A1A"/>
</g>
<g filter="url(#filter1_d_1_162)">
<path d="M163.916 19.6694C163.526 19.6694 163.331 19.4787 163.331 19.0973V0.915448C163.331 0.525534 163.526 0.330578 163.916 0.330578H167.997C168.396 0.330578 168.595 0.525534 168.595 0.915448V14.9015H172.537C172.833 14.9015 172.986 15.0879 172.994 15.4609V19.0973C172.994 19.4787 172.842 19.6694 172.537 19.6694H163.916Z" fill="#ED1A1A"/>
</g>
<g filter="url(#filter2_d_1_162)">
<path d="M150.477 19.6694C150.078 19.6694 149.879 19.4787 149.879 19.0973V0.915448C149.879 0.525534 150.078 0.330578 150.477 0.330578H156.033C157.703 0.330578 159.118 0.834922 160.28 1.84361C161.458 2.87773 162.047 4.12375 162.047 5.58169V8.50604C162.047 9.97245 161.458 11.2354 160.28 12.295C159.093 13.363 157.677 13.897 156.033 13.897H155.143V19.0973C155.143 19.4787 154.948 19.6694 154.558 19.6694H150.477ZM155.143 9.11634H156.033C156.253 9.11634 156.431 9.06548 156.567 8.96376C156.703 8.85357 156.771 8.70523 156.771 8.51875V5.70884C156.771 5.51388 156.698 5.36554 156.554 5.26383C156.41 5.15363 156.232 5.09854 156.02 5.09854H155.143V9.11634Z" fill="#ED1A1A"/>
</g>
<g filter="url(#filter3_d_1_162)">
<path d="M137.025 19.6694C136.626 19.6694 136.427 19.4787 136.427 19.0973V0.915448C136.427 0.525534 136.626 0.330578 137.025 0.330578H142.581C144.251 0.330578 145.666 0.834922 146.828 1.84361C148.006 2.87773 148.595 4.12375 148.595 5.58169V8.50604C148.595 9.97245 148.006 11.2354 146.828 12.295C145.641 13.363 144.225 13.897 142.581 13.897H141.691V19.0973C141.691 19.4787 141.496 19.6694 141.106 19.6694H137.025ZM141.691 9.11634H142.581C142.801 9.11634 142.979 9.06548 143.115 8.96376C143.251 8.85357 143.319 8.70523 143.319 8.51875V5.70884C143.319 5.51388 143.246 5.36554 143.102 5.26383C142.958 5.15363 142.78 5.09854 142.568 5.09854H141.691V9.11634Z" fill="#ED1A1A"/>
</g>
<g filter="url(#filter4_d_1_162)">
<path d="M128.709 20C127.031 20 125.582 19.4914 124.361 18.4743C123.149 17.4486 122.543 16.2068 122.543 14.7489V0.915448C122.543 0.762873 122.585 0.627251 122.67 0.508582C122.755 0.389912 122.857 0.330578 122.975 0.330578H127.349C127.535 0.330578 127.658 0.381436 127.718 0.483153C127.786 0.576393 127.819 0.720491 127.819 0.915448V14.431C127.819 14.6514 127.896 14.8379 128.048 14.9905C128.201 15.143 128.426 15.2193 128.722 15.2193C129.019 15.2193 129.235 15.143 129.371 14.9905C129.515 14.8379 129.587 14.6514 129.587 14.431V0.915448C129.587 0.754396 129.633 0.618775 129.727 0.508582C129.82 0.389912 129.947 0.330578 130.108 0.330578H134.304C134.473 0.330578 134.609 0.389912 134.711 0.508582C134.812 0.618775 134.863 0.754396 134.863 0.915448V14.7489C134.863 16.1983 134.253 17.4359 133.032 18.4615C131.82 19.4872 130.379 20 128.709 20Z" fill="#ED1A1A"/>
</g>
<g filter="url(#filter5_d_1_162)">
<path d="M115.13 20C113.689 20 112.503 19.7076 111.57 19.1227C110.723 18.6141 110.091 17.9318 109.676 17.0757C109.303 16.3213 109.121 15.499 109.129 14.609V13.8462C109.129 13.5156 109.163 13.2994 109.231 13.1977C109.299 13.0875 109.455 13.0324 109.701 13.0324H113.706C113.969 13.0324 114.134 13.079 114.202 13.1723C114.278 13.257 114.317 13.4351 114.317 13.7063V14.3039C114.317 14.6345 114.41 14.876 114.596 15.0286C114.749 15.1558 114.957 15.2193 115.219 15.2193C115.44 15.2193 115.626 15.1558 115.779 15.0286C115.94 14.893 116.02 14.698 116.02 14.4437C116.02 14.0962 115.893 13.7656 115.639 13.452C115.419 13.1977 115.003 12.8375 114.393 12.3713L112.664 11.0871C111.553 10.2818 110.773 9.60797 110.324 9.06548C109.765 8.42128 109.405 7.67535 109.243 6.82772C109.159 6.38695 109.121 5.86989 109.129 5.27654C109.129 3.67451 109.756 2.36915 111.011 1.36046C112.13 0.453486 113.456 0 114.99 0C116.754 0 118.169 0.49163 119.237 1.47489C120.356 2.50053 120.92 3.88642 120.928 5.63255V6.39542C120.928 6.64124 120.886 6.79805 120.801 6.86586C120.725 6.93367 120.534 6.96758 120.229 6.96758H116.3C116.08 6.96758 115.94 6.92943 115.88 6.85315C115.83 6.77686 115.804 6.62005 115.804 6.38271V5.65798C115.804 5.07311 115.567 4.78067 115.092 4.78067C114.855 4.78067 114.677 4.84425 114.558 4.97139C114.448 5.09854 114.393 5.25111 114.393 5.42912C114.393 5.82751 114.456 6.12418 114.584 6.31914C114.736 6.57343 115.156 6.92943 115.842 7.38716C117.572 8.49756 118.822 9.4893 119.593 10.3624C120.712 11.6423 121.271 13.1045 121.271 14.7489C121.271 16.2407 120.72 17.474 119.619 18.4488C118.449 19.4829 116.953 20 115.13 20Z" fill="#ED1A1A"/>
</g>
<g filter="url(#filter6_d_1_162)">
<path d="M89.0909 19.6694C88.6925 19.6694 88.4933 19.4787 88.4933 19.0973V0.915448C88.4933 0.525534 88.6925 0.330578 89.0909 0.330578H94.7616C96.5416 0.330578 97.9699 0.754396 99.0464 1.60203C100.216 2.53443 100.801 3.86099 100.801 5.58169V14.4183C100.801 16.1221 100.22 17.4444 99.0591 18.3853C97.9996 19.2414 96.5925 19.6694 94.8379 19.6694H89.0909ZM93.7571 14.9015H94.8379C95.0328 14.8845 95.1981 14.8167 95.3337 14.698C95.4694 14.5794 95.5372 14.4268 95.5372 14.2403V5.81055C95.5372 5.53931 95.4694 5.34435 95.3337 5.22568C95.2236 5.14092 95.0583 5.09854 94.8379 5.09854H93.7571V14.9015Z" fill="#ED1A1A"/>
</g>
<g filter="url(#filter7_d_1_162)">
<path d="M80.9154 20C79.1778 20 77.7326 19.538 76.5798 18.6141C75.3677 17.6478 74.7616 16.3594 74.7616 14.7489V5.25111C74.7616 3.58974 75.3677 2.28438 76.5798 1.33503C77.7241 0.44501 79.1651 0 80.9027 0C82.6573 0 84.0983 0.44501 85.2257 1.33503C86.4463 2.29286 87.0566 3.59822 87.0566 5.25111V14.7489C87.0566 16.4018 86.4463 17.7071 85.2257 18.665C84.0983 19.555 82.6616 20 80.9154 20ZM80.9154 15.2193C81.2121 15.2193 81.4325 15.143 81.5766 14.9905C81.7207 14.8294 81.7927 14.6429 81.7927 14.431V5.56898C81.7927 5.37402 81.7122 5.19602 81.5512 5.03497C81.3986 4.86544 81.1867 4.78067 80.9154 4.78067C80.6442 4.78067 80.4281 4.8612 80.267 5.02225C80.1059 5.1833 80.0254 5.36554 80.0254 5.56898V14.431C80.0254 14.6429 80.0975 14.8294 80.2416 14.9905C80.3857 15.143 80.6103 15.2193 80.9154 15.2193Z" fill="#ED1A1A"/>
</g>
<g filter="url(#filter8_d_1_162)">
<path d="M67.4634 20C65.7258 20 64.2806 19.538 63.1278 18.6141C61.9157 17.6478 61.3096 16.3594 61.3096 14.7489V5.25111C61.3096 3.58974 61.9157 2.28438 63.1278 1.33503C64.2721 0.44501 65.7131 0 67.4507 0C69.2053 0 70.6463 0.44501 71.7737 1.33503C72.9943 2.29286 73.6046 3.59822 73.6046 5.25111V14.7489C73.6046 16.4018 72.9943 17.7071 71.7737 18.665C70.6463 19.555 69.2096 20 67.4634 20ZM67.4634 15.2193C67.7601 15.2193 67.9805 15.143 68.1246 14.9905C68.2687 14.8294 68.3408 14.6429 68.3408 14.431V5.56898C68.3408 5.37402 68.2602 5.19602 68.0992 5.03497C67.9466 4.86544 67.7347 4.78067 67.4634 4.78067C67.1922 4.78067 66.9761 4.8612 66.815 5.02225C66.654 5.1833 66.5734 5.36554 66.5734 5.56898V14.431C66.5734 14.6429 66.6455 14.8294 66.7896 14.9905C66.9337 15.143 67.1583 15.2193 67.4634 15.2193Z" fill="#ED1A1A"/>
</g>
<g filter="url(#filter9_d_1_162)">
<path d="M51.2015 19.6694C50.8031 19.6694 50.6039 19.4787 50.6039 19.0973V0.915448C50.6039 0.525534 50.8031 0.330578 51.2015 0.330578H60.0763C60.373 0.330578 60.5213 0.525534 60.5213 0.915448V4.5391C60.5213 4.92053 60.373 5.10701 60.0763 5.09854H55.8678V7.89574H58.9574C59.3049 7.89574 59.4787 8.09493 59.4787 8.49332V12.0915C59.4787 12.473 59.3049 12.6637 58.9574 12.6637H55.8678V19.0973C55.8678 19.4787 55.6686 19.6694 55.2702 19.6694H51.2015Z" fill="#ED1A1A"/>
</g>
<g filter="url(#filter10_d_1_162)">
<path d="M33.185 19.6694C32.7951 19.6694 32.6001 19.4787 32.6001 19.0973V0.915448C32.6001 0.525534 32.7951 0.330578 33.185 0.330578H37.2664C37.6648 0.330578 37.864 0.525534 37.864 0.915448V14.9015H41.8055C42.1021 14.9015 42.2547 15.0879 42.2632 15.4609V19.0973C42.2632 19.4787 42.1106 19.6694 41.8055 19.6694H33.185Z" fill="#ED1A1A"/>
</g>
<g filter="url(#filter11_d_1_162)">
<path d="M26.2301 19.6694C25.8317 19.6694 25.6326 19.4787 25.6326 19.0973V0.915448C25.6326 0.525534 25.8317 0.330578 26.2301 0.330578H30.2988C30.6972 0.330578 30.8964 0.525534 30.8964 0.915448V19.0973C30.8964 19.4787 30.6972 19.6694 30.2988 19.6694H26.2301Z" fill="#ED1A1A"/>
</g>
<g filter="url(#filter12_d_1_162)">
<path d="M15.9441 19.6694C15.5626 19.6694 15.3253 19.4745 15.232 19.0846L10.8837 0.902733C10.8328 0.724729 10.8455 0.584869 10.9218 0.483153C11.0066 0.381436 11.1295 0.330578 11.2905 0.330578H15.4482C15.8805 0.330578 16.1263 0.521296 16.1856 0.902733L17.6478 11.0998L17.7877 13.007L17.9402 11.0998L19.377 0.902733C19.4363 0.521296 19.6821 0.330578 20.1144 0.330578H24.2848C24.4459 0.330578 24.5645 0.381436 24.6408 0.483153C24.7171 0.576393 24.734 0.716253 24.6917 0.902733L20.3306 19.0846C20.2204 19.4745 19.983 19.6694 19.6186 19.6694H15.9441Z" fill="#ED1A1A"/>
</g>
<g filter="url(#filter13_d_1_162)">
<path d="M0.597584 19.6694C0.199195 19.6694 0 19.4787 0 19.0973V0.915448C0 0.525534 0.199195 0.330578 0.597584 0.330578H9.61221C9.9004 0.330578 10.0487 0.525534 10.0572 0.915448V4.5391C10.0572 4.92053 9.90888 5.10701 9.61221 5.09854H5.26383V7.62873H8.50604C8.85357 7.62873 9.02734 7.82793 9.02734 8.22632V11.8118C9.02734 12.1933 8.85357 12.384 8.50604 12.384H5.26383V14.9015H9.72664C10.0403 14.9015 10.1971 15.0879 10.1971 15.4609V19.0973C10.1971 19.4787 10.0403 19.6694 9.72664 19.6694H0.597584Z" fill="#ED1A1A"/>
</g>
<defs>
<filter id="filter0_d_1_162" x="172.259" y="0.330578" width="13.7257" height="20.3388" filterUnits="userSpaceOnUse" color-interpolation-filters="sRGB">
<feFlood flood-opacity="0" result="BackgroundImageFix"/>
<feColorMatrix in="SourceAlpha" type="matrix" values="0 0 0 0 0 0 0 0 0 0 0 0 0 0 0 0 0 0 127 0" result="hardAlpha"/>
<feOffset dy="1"/>
<feComposite in2="hardAlpha" operator="out"/>
<feColorMatrix type="matrix" values="0 0 0 0 0.945098 0 0 0 0 0.768627 0 0 0 0 0.0588235 0 0 0 1 0"/>
<feBlend mode="normal" in2="BackgroundImageFix" result="effect1_dropShadow_1_162"/>
<feBlend mode="normal" in="SourceGraphic" in2="effect1_dropShadow_1_162" result="shape"/>
</filter>
<filter id="filter1_d_1_162" x="163.331" y="0.330578" width="9.66306" height="20.3388" filterUnits="userSpaceOnUse" color-interpolation-filters="sRGB">
<feFlood flood-opacity="0" result="BackgroundImageFix"/>
<feColorMatrix in="SourceAlpha" type="matrix" values="0 0 0 0 0 0 0 0 0 0 0 0 0 0 0 0 0 0 127 0" result="hardAlpha"/>
<feOffset dy="1"/>
<feComposite in2="hardAlpha" operator="out"/>
<feColorMatrix type="matrix" values="0 0 0 0 0.945098 0 0 0 0 0.768627 0 0 0 0 0.0588235 0 0 0 1 0"/>
<feBlend mode="normal" in2="BackgroundImageFix" result="effect1_dropShadow_1_162"/>
<feBlend mode="normal" in="SourceGraphic" in2="effect1_dropShadow_1_162" result="shape"/>
</filter>
<filter id="filter2_d_1_162" x="149.879" y="0.330578" width="12.1678" height="20.3388" filterUnits="userSpaceOnUse" color-interpolation-filters="sRGB">
<feFlood flood-opacity="0" result="BackgroundImageFix"/>
<feColorMatrix in="SourceAlpha" type="matrix" values="0 0 0 0 0 0 0 0 0 0 0 0 0 0 0 0 0 0 127 0" result="hardAlpha"/>
<feOffset dy="1"/>
<feComposite in2="hardAlpha" operator="out"/>
<feColorMatrix type="matrix" values="0 0 0 0 0.945098 0 0 0 0 0.768627 0 0 0 0 0.0588235 0 0 0 1 0"/>
<feBlend mode="normal" in2="BackgroundImageFix" result="effect1_dropShadow_1_162"/>
<feBlend mode="normal" in="SourceGraphic" in2="effect1_dropShadow_1_162" result="shape"/>
</filter>
<filter id="filter3_d_1_162" x="136.427" y="0.330578" width="12.1678" height="20.3388" filterUnits="userSpaceOnUse" color-interpolation-filters="sRGB">
<feFlood flood-opacity="0" result="BackgroundImageFix"/>
<feColorMatrix in="SourceAlpha" type="matrix" values="0 0 0 0 0 0 0 0 0 0 0 0 0 0 0 0 0 0 127 0" result="hardAlpha"/>
<feOffset dy="1"/>
<feComposite in2="hardAlpha" operator="out"/>
<feColorMatrix type="matrix" values="0 0 0 0 0.945098 0 0 0 0 0.768627 0 0 0 0 0.0588235 0 0 0 1 0"/>
<feBlend mode="normal" in2="BackgroundImageFix" result="effect1_dropShadow_1_162"/>
<feBlend mode="normal" in="SourceGraphic" in2="effect1_dropShadow_1_162" result="shape"/>
</filter>
<filter id="filter4_d_1_162" x="122.543" y="0.330578" width="12.3204" height="20.6694" filterUnits="userSpaceOnUse" color-interpolation-filters="sRGB">
<feFlood flood-opacity="0" result="BackgroundImageFix"/>
<feColorMatrix in="SourceAlpha" type="matrix" values="0 0 0 0 0 0 0 0 0 0 0 0 0 0 0 0 0 0 127 0" result="hardAlpha"/>
<feOffset dy="1"/>
<feComposite in2="hardAlpha" operator="out"/>
<feColorMatrix type="matrix" values="0 0 0 0 0.945098 0 0 0 0 0.768627 0 0 0 0 0.0588235 0 0 0 1 0"/>
<feBlend mode="normal" in2="BackgroundImageFix" result="effect1_dropShadow_1_162"/>
<feBlend mode="normal" in="SourceGraphic" in2="effect1_dropShadow_1_162" result="shape"/>
</filter>
<filter id="filter5_d_1_162" x="109.128" y="0" width="12.1436" height="21" filterUnits="userSpaceOnUse" color-interpolation-filters="sRGB">
<feFlood flood-opacity="0" result="BackgroundImageFix"/>
<feColorMatrix in="SourceAlpha" type="matrix" values="0 0 0 0 0 0 0 0 0 0 0 0 0 0 0 0 0 0 127 0" result="hardAlpha"/>
<feOffset dy="1"/>
<feComposite in2="hardAlpha" operator="out"/>
<feColorMatrix type="matrix" values="0 0 0 0 0.945098 0 0 0 0 0.768627 0 0 0 0 0.0588235 0 0 0 1 0"/>
<feBlend mode="normal" in2="BackgroundImageFix" result="effect1_dropShadow_1_162"/>
<feBlend mode="normal" in="SourceGraphic" in2="effect1_dropShadow_1_162" result="shape"/>
</filter>
<filter id="filter6_d_1_162" x="88.4933" y="0.330578" width="12.3077" height="20.3388" filterUnits="userSpaceOnUse" color-interpolation-filters="sRGB">
<feFlood flood-opacity="0" result="BackgroundImageFix"/>
<feColorMatrix in="SourceAlpha" type="matrix" values="0 0 0 0 0 0 0 0 0 0 0 0 0 0 0 0 0 0 127 0" result="hardAlpha"/>
<feOffset dy="1"/>
<feComposite in2="hardAlpha" operator="out"/>
<feColorMatrix type="matrix" values="0 0 0 0 0.945098 0 0 0 0 0.768627 0 0 0 0 0.0588235 0 0 0 1 0"/>
<feBlend mode="normal" in2="BackgroundImageFix" result="effect1_dropShadow_1_162"/>
<feBlend mode="normal" in="SourceGraphic" in2="effect1_dropShadow_1_162" result="shape"/>
</filter>
<filter id="filter7_d_1_162" x="74.7616" y="0" width="12.295" height="21" filterUnits="userSpaceOnUse" color-interpolation-filters="sRGB">
<feFlood flood-opacity="0" result="BackgroundImageFix"/>
<feColorMatrix in="SourceAlpha" type="matrix" values="0 0 0 0 0 0 0 0 0 0 0 0 0 0 0 0 0 0 127 0" result="hardAlpha"/>
<feOffset dy="1"/>
<feComposite in2="hardAlpha" operator="out"/>
<feColorMatrix type="matrix" values="0 0 0 0 0.945098 0 0 0 0 0.768627 0 0 0 0 0.0588235 0 0 0 1 0"/>
<feBlend mode="normal" in2="BackgroundImageFix" result="effect1_dropShadow_1_162"/>
<feBlend mode="normal" in="SourceGraphic" in2="effect1_dropShadow_1_162" result="shape"/>
</filter>
<filter id="filter8_d_1_162" x="61.3096" y="0" width="12.295" height="21" filterUnits="userSpaceOnUse" color-interpolation-filters="sRGB">
<feFlood flood-opacity="0" result="BackgroundImageFix"/>
<feColorMatrix in="SourceAlpha" type="matrix" values="0 0 0 0 0 0 0 0 0 0 0 0 0 0 0 0 0 0 127 0" result="hardAlpha"/>
<feOffset dy="1"/>
<feComposite in2="hardAlpha" operator="out"/>
<feColorMatrix type="matrix" values="0 0 0 0 0.945098 0 0 0 0 0.768627 0 0 0 0 0.0588235 0 0 0 1 0"/>
<feBlend mode="normal" in2="BackgroundImageFix" result="effect1_dropShadow_1_162"/>
<feBlend mode="normal" in="SourceGraphic" in2="effect1_dropShadow_1_162" result="shape"/>
</filter>
<filter id="filter9_d_1_162" x="50.6039" y="0.330578" width="9.91736" height="20.3388" filterUnits="userSpaceOnUse" color-interpolation-filters="sRGB">
<feFlood flood-opacity="0" result="BackgroundImageFix"/>
<feColorMatrix in="SourceAlpha" type="matrix" values="0 0 0 0 0 0 0 0 0 0 0 0 0 0 0 0 0 0 127 0" result="hardAlpha"/>
<feOffset dy="1"/>
<feComposite in2="hardAlpha" operator="out"/>
<feColorMatrix type="matrix" values="0 0 0 0 0.945098 0 0 0 0 0.768627 0 0 0 0 0.0588235 0 0 0 1 0"/>
<feBlend mode="normal" in2="BackgroundImageFix" result="effect1_dropShadow_1_162"/>
<feBlend mode="normal" in="SourceGraphic" in2="effect1_dropShadow_1_162" result="shape"/>
</filter>
<filter id="filter10_d_1_162" x="32.6001" y="0.330578" width="9.66307" height="20.3388" filterUnits="userSpaceOnUse" color-interpolation-filters="sRGB">
<feFlood flood-opacity="0" result="BackgroundImageFix"/>
<feColorMatrix in="SourceAlpha" type="matrix" values="0 0 0 0 0 0 0 0 0 0 0 0 0 0 0 0 0 0 127 0" result="hardAlpha"/>
<feOffset dy="1"/>
<feComposite in2="hardAlpha" operator="out"/>
<feColorMatrix type="matrix" values="0 0 0 0 0.945098 0 0 0 0 0.768627 0 0 0 0 0.0588235 0 0 0 1 0"/>
<feBlend mode="normal" in2="BackgroundImageFix" result="effect1_dropShadow_1_162"/>
<feBlend mode="normal" in="SourceGraphic" in2="effect1_dropShadow_1_162" result="shape"/>
</filter>
<filter id="filter11_d_1_162" x="25.6326" y="0.330578" width="5.26382" height="20.3388" filterUnits="userSpaceOnUse" color-interpolation-filters="sRGB">
<feFlood flood-opacity="0" result="BackgroundImageFix"/>
<feColorMatrix in="SourceAlpha" type="matrix" values="0 0 0 0 0 0 0 0 0 0 0 0 0 0 0 0 0 0 127 0" result="hardAlpha"/>
<feOffset dy="1"/>
<feComposite in2="hardAlpha" operator="out"/>
<feColorMatrix type="matrix" values="0 0 0 0 0.945098 0 0 0 0 0.768627 0 0 0 0 0.0588235 0 0 0 1 0"/>
<feBlend mode="normal" in2="BackgroundImageFix" result="effect1_dropShadow_1_162"/>
<feBlend mode="normal" in="SourceGraphic" in2="effect1_dropShadow_1_162" result="shape"/>
</filter>
<filter id="filter12_d_1_162" x="10.8531" y="0.330578" width="13.8612" height="20.3388" filterUnits="userSpaceOnUse" color-interpolation-filters="sRGB">
<feFlood flood-opacity="0" result="BackgroundImageFix"/>
<feColorMatrix in="SourceAlpha" type="matrix" values="0 0 0 0 0 0 0 0 0 0 0 0 0 0 0 0 0 0 127 0" result="hardAlpha"/>
<feOffset dy="1"/>
<feComposite in2="hardAlpha" operator="out"/>
<feColorMatrix type="matrix" values="0 0 0 0 0.945098 0 0 0 0 0.768627 0 0 0 0 0.0588235 0 0 0 1 0"/>
<feBlend mode="normal" in2="BackgroundImageFix" result="effect1_dropShadow_1_162"/>
<feBlend mode="normal" in="SourceGraphic" in2="effect1_dropShadow_1_162" result="shape"/>
</filter>
<filter id="filter13_d_1_162" x="0" y="0.330578" width="10.1971" height="20.3388" filterUnits="userSpaceOnUse" color-interpolation-filters="sRGB">
<feFlood flood-opacity="0" result="BackgroundImageFix"/>
<feColorMatrix in="SourceAlpha" type="matrix" values="0 0 0 0 0 0 0 0 0 0 0 0 0 0 0 0 0 0 127 0" result="hardAlpha"/>
<feOffset dy="1"/>
<feComposite in2="hardAlpha" operator="out"/>
<feColorMatrix type="matrix" values="0 0 0 0 0.945098 0 0 0 0 0.768627 0 0 0 0 0.0588235 0 0 0 1 0"/>
<feBlend mode="normal" in2="BackgroundImageFix" result="effect1_dropShadow_1_162"/>
<feBlend mode="normal" in="SourceGraphic" in2="effect1_dropShadow_1_162" result="shape"/>
</filter>
</defs>
</svg>
