<svg width="44" height="31" viewBox="0 0 44 31" fill="none" xmlns="http://www.w3.org/2000/svg">
<rect x="0.5" y="0.5" width="43" height="30" rx="3.5" fill="#5A31F4"/>
<rect x="0.5" y="0.5" width="43" height="30" rx="3.5" stroke="#F2F4F7"/>
<path d="M24.9345 14.1771C24.9345 16.1095 23.5771 17.489 21.6802 17.489H19.8931C19.8734 17.489 19.8538 17.4929 19.8356 17.5005C19.8174 17.508 19.8009 17.5191 19.7869 17.5331C19.773 17.547 19.762 17.5636 19.7545 17.5818C19.747 17.6 19.7432 17.6195 19.7433 17.6392V20.1791C19.7433 20.2188 19.7276 20.2569 19.6995 20.285C19.6714 20.3132 19.6334 20.3291 19.5936 20.3293H18.343C18.3133 20.3292 18.2843 20.3203 18.2596 20.3037C18.2349 20.2872 18.2156 20.2638 18.2042 20.2364C18.1966 20.2185 18.1927 20.1993 18.1925 20.1798V11.0146C18.1925 10.9949 18.1963 10.9754 18.2037 10.9572C18.2112 10.9389 18.2222 10.9224 18.2362 10.9084C18.2501 10.8945 18.2666 10.8834 18.2848 10.8758C18.3031 10.8683 18.3226 10.8644 18.3423 10.8644H21.6882C23.5771 10.8622 24.9345 12.2417 24.9345 14.1771ZM23.3749 14.1771C23.3749 13.0661 22.6159 12.254 21.5864 12.254H19.8931C19.8734 12.254 19.8538 12.2579 19.8356 12.2655C19.8174 12.273 19.8009 12.2841 19.7869 12.2981C19.773 12.312 19.762 12.3286 19.7545 12.3468C19.747 12.365 19.7432 12.3846 19.7433 12.4043V15.9412C19.7433 15.9808 19.7591 16.0188 19.7872 16.0469C19.8153 16.0749 19.8534 16.0907 19.8931 16.0907H21.5864C22.6159 16.0979 23.3749 15.2852 23.3749 14.1771ZM25.3052 18.571C25.2923 18.2746 25.3537 17.9797 25.484 17.7131C25.6143 17.4464 25.8092 17.2165 26.0512 17.0442C26.539 16.6777 27.3017 16.4883 28.4214 16.4491L29.6137 16.407V16.0558C29.6137 15.3519 29.1411 15.0544 28.3821 15.0544C27.6231 15.0544 27.1418 15.3229 27.0313 15.7619C27.0222 15.7928 27.0032 15.8198 26.9772 15.8387C26.9511 15.8576 26.9195 15.8674 26.8873 15.8664H25.7095C25.6878 15.867 25.6662 15.8628 25.6464 15.8542C25.6265 15.8455 25.6088 15.8326 25.5945 15.8163C25.5802 15.8 25.5696 15.7808 25.5636 15.76C25.5576 15.7391 25.5563 15.7173 25.5597 15.6959C25.7342 14.6553 26.6016 13.8643 28.4359 13.8643C30.3873 13.8643 31.0918 14.7714 31.0918 16.5028V20.1791C31.0914 20.2192 31.0752 20.2575 31.0465 20.2856C31.0179 20.3138 30.9793 20.3295 30.9391 20.3293H29.7519C29.7121 20.3292 29.674 20.3136 29.6457 20.2858C29.6318 20.2718 29.6208 20.2553 29.6133 20.2371C29.6059 20.2189 29.602 20.1995 29.6021 20.1798V19.9048C29.6025 19.8821 29.596 19.8597 29.5835 19.8407C29.571 19.8218 29.553 19.807 29.5319 19.7985C29.5108 19.7899 29.4876 19.7879 29.4653 19.7928C29.4431 19.7976 29.4228 19.8091 29.4072 19.8257C29.051 20.2125 28.4759 20.4918 27.5547 20.4918C26.1995 20.4918 25.3052 19.7879 25.3052 18.571ZM29.6137 17.7742V17.489L28.0695 17.5703C27.2559 17.6117 26.7826 17.9491 26.7826 18.5173C26.7826 19.0311 27.2167 19.3155 27.975 19.3155C29.0052 19.3155 29.6137 18.7604 29.6137 17.7742ZM32.2842 23.1072V22.0419C32.2844 22.0195 32.2895 21.9975 32.2993 21.9774C32.309 21.9573 32.323 21.9395 32.3403 21.9254C32.3577 21.9112 32.3779 21.9011 32.3996 21.8956C32.4213 21.8902 32.444 21.8896 32.4659 21.8938C32.6477 21.9279 32.8331 21.9454 33.0185 21.9461C33.3372 21.9616 33.6519 21.8699 33.9123 21.6857C34.1726 21.5015 34.3635 21.2355 34.4544 20.9302L34.5315 20.6849C34.5427 20.6519 34.5427 20.6162 34.5315 20.5833L32.0573 14.2409C32.0484 14.2179 32.0452 14.1931 32.048 14.1686C32.0507 14.1441 32.0594 14.1206 32.0733 14.1002C32.0872 14.0798 32.1058 14.0631 32.1276 14.0514C32.1494 14.0398 32.1737 14.0336 32.1984 14.0334H33.398C33.4287 14.0337 33.4585 14.0432 33.4836 14.0607C33.5088 14.0782 33.5281 14.1028 33.5391 14.1313L35.2193 18.6044C35.2298 18.6341 35.2493 18.6598 35.2751 18.678C35.3008 18.6962 35.3316 18.706 35.3632 18.706C35.3948 18.706 35.4256 18.6962 35.4514 18.678C35.4772 18.6598 35.4966 18.6341 35.5072 18.6044L36.9664 14.1437C36.9765 14.1132 36.996 14.0867 37.0221 14.0679C37.0482 14.0491 37.0796 14.0391 37.1118 14.0392H38.3528C38.3777 14.0393 38.4022 14.0455 38.4241 14.0571C38.4461 14.0687 38.4649 14.0855 38.479 14.106C38.493 14.1264 38.5019 14.15 38.5049 14.1746C38.5079 14.1993 38.5049 14.2242 38.4961 14.2475L35.8496 21.2908C35.2403 22.9279 34.1956 23.3466 33.0454 23.3466C32.8273 23.3524 32.6092 23.3263 32.3983 23.269C32.3633 23.2597 32.3326 23.2384 32.3117 23.2088C32.2908 23.1792 32.2811 23.1432 32.2842 23.1072ZM10.1565 10.3361C8.58032 10.3249 7.05977 10.917 5.90764 11.9906C5.85837 12.0357 5.82765 12.0974 5.82147 12.1638C5.81529 12.2302 5.83408 12.2965 5.87419 12.3498L6.58742 13.3222C6.61055 13.3546 6.64049 13.3815 6.67516 13.4011C6.70983 13.4207 6.74838 13.4324 6.78809 13.4356C6.8278 13.4387 6.86772 13.4331 6.90502 13.4191C6.94233 13.4052 6.97612 13.3833 7.00402 13.3549C7.4183 12.9415 7.91097 12.6147 8.45325 12.3935C8.99553 12.1723 9.57654 12.0613 10.1623 12.0668C12.6081 12.0668 13.8855 13.9042 13.8855 15.7184C13.8855 17.6908 12.5434 19.0782 10.6145 19.1058C9.12409 19.1058 8.0008 18.1196 8.0008 16.8171C8.00236 16.488 8.07705 16.1634 8.2195 15.8666C8.36194 15.5698 8.56859 15.3083 8.82455 15.1008C8.87866 15.0557 8.91286 14.9912 8.9198 14.9212C8.92673 14.8512 8.90584 14.7812 8.86163 14.7264L8.11204 13.7816C8.08937 13.753 8.0612 13.7293 8.02918 13.7117C7.99717 13.6942 7.96196 13.6833 7.92563 13.6795C7.88931 13.6758 7.8526 13.6794 7.81769 13.6901C7.78277 13.7007 7.75035 13.7183 7.72234 13.7417C7.26199 14.1119 6.89049 14.5802 6.63511 15.1124C6.37972 15.6445 6.24692 16.227 6.24644 16.8171C6.24644 19.0594 8.15566 20.8184 10.6014 20.8329H10.6342C13.538 20.7952 15.6377 18.6486 15.6377 15.7148C15.6377 13.1096 13.7154 10.3361 10.1572 10.3361H10.1565Z" fill="white"/>
</svg>
