<svg width="44" height="31" viewBox="0 0 44 31" fill="none" xmlns="http://www.w3.org/2000/svg">
<rect x="0.5" y="0.5" width="43" height="30" rx="3.5" fill="white"/>
<rect x="0.5" y="0.5" width="43" height="30" rx="3.5" stroke="#F2F4F7"/>
<path fill-rule="evenodd" clip-rule="evenodd" d="M22.232 21.7414C20.6998 23.0303 18.7124 23.8083 16.5406 23.8083C11.6943 23.8083 7.76562 19.9337 7.76562 15.1542C7.76562 10.3746 11.6943 6.5 16.5406 6.5C18.7124 6.5 20.6998 7.27806 22.232 8.56695C23.7643 7.27806 25.7517 6.5 27.9234 6.5C32.7698 6.5 36.6985 10.3746 36.6985 15.1542C36.6985 19.9337 32.7698 23.8083 27.9234 23.8083C25.7517 23.8083 23.7643 23.0303 22.232 21.7414Z" fill="#ED0006"/>
<path fill-rule="evenodd" clip-rule="evenodd" d="M22.232 21.7414C24.1191 20.154 25.3156 17.7919 25.3156 15.1542C25.3156 12.5164 24.1191 10.1543 22.232 8.56695C23.7643 7.27806 25.7517 6.5 27.9234 6.5C32.7698 6.5 36.6985 10.3746 36.6985 15.1542C36.6985 19.9337 32.7698 23.8083 27.9234 23.8083C25.7517 23.8083 23.7643 23.0303 22.232 21.7414Z" fill="#F9A000"/>
<path fill-rule="evenodd" clip-rule="evenodd" d="M22.2399 21.7335C24.1269 20.1462 25.3235 17.784 25.3235 15.1463C25.3235 12.5085 24.1269 10.1464 22.2399 8.55908C20.3528 10.1464 19.1562 12.5085 19.1562 15.1463C19.1562 17.784 20.3528 20.1462 22.2399 21.7335Z" fill="#FF5E00"/>
</svg>
