<svg width="44" height="31" viewBox="0 0 44 31" fill="none" xmlns="http://www.w3.org/2000/svg">
<rect x="0.5" y="0.5" width="43" height="30" rx="3.5" fill="white"/>
<rect x="0.5" y="0.5" width="43" height="30" rx="3.5" stroke="#F2F4F7"/>
<path fill-rule="evenodd" clip-rule="evenodd" d="M20.7879 20.0608V16.2702H22.748C23.5512 16.2702 24.2292 16.0015 24.7818 15.4718L24.9145 15.3374C25.924 14.2406 25.8577 12.5318 24.7818 11.517C24.2439 10.9798 23.507 10.6887 22.748 10.7037H19.6016V20.0608H20.7879ZM20.7812 15.1198V11.8516H22.7711C23.1986 11.8516 23.604 12.0157 23.9061 12.3142C24.5473 12.941 24.5621 13.9856 23.943 14.6348C23.6408 14.9557 23.2133 15.1348 22.7711 15.1198H20.7812ZM30.4517 14.162C29.9433 13.6919 29.2506 13.4531 28.3737 13.4531C27.2463 13.4531 26.3989 13.871 25.8389 14.6992L26.8852 15.3633C27.2684 14.7962 27.7916 14.5127 28.4548 14.5127C28.8748 14.5127 29.2801 14.6694 29.5969 14.9529C29.9064 15.2216 30.0833 15.6096 30.0833 16.02V16.2961C29.6264 16.0424 29.0517 15.9081 28.3442 15.9081C27.5189 15.9081 26.8557 16.1021 26.362 16.4975C25.8683 16.893 25.6178 17.4153 25.6178 18.0794C25.603 18.6838 25.861 19.2584 26.3178 19.6464C26.7821 20.0643 27.3716 20.2732 28.0642 20.2732C28.8822 20.2732 29.5306 19.9076 30.0243 19.1763H30.0759V20.0643H31.2107V16.117C31.2107 15.2887 30.9602 14.6321 30.4517 14.162ZM27.2344 18.8903C26.9911 18.7112 26.8438 18.4202 26.8438 18.1068C26.8438 17.7561 27.0059 17.4651 27.3228 17.2338C27.6471 17.0025 28.0524 16.8831 28.5315 16.8831C29.1948 16.8756 29.7107 17.0249 30.0792 17.3233C30.0792 17.8307 29.8802 18.271 29.4896 18.6441C29.1358 19.0022 28.6568 19.2037 28.1556 19.2037C27.824 19.2112 27.4997 19.0992 27.2344 18.8903ZM33.7569 22.8716L37.7213 13.6562H36.4318L34.5969 18.2527H34.5748L32.6958 13.6562H31.4062L34.0074 19.6481L32.5337 22.8716H33.7569Z" fill="#3C4043"/>
<path d="M16.6934 15.441C16.6934 15.0754 16.6639 14.7097 16.605 14.3516H11.6016V16.4185H14.468C14.3501 17.0826 13.967 17.6795 13.4069 18.0526V19.3957H15.1165C16.1186 18.463 16.6934 17.0826 16.6934 15.441Z" fill="#4285F4"/>
<path d="M11.5975 20.7021C13.0271 20.7021 14.2356 20.2246 15.1124 19.4038L13.4029 18.0607C12.9239 18.389 12.3123 18.5755 11.5975 18.5755C10.2122 18.5755 9.04054 17.6279 8.62052 16.3594H6.85938V17.7473C7.75837 19.5605 9.59321 20.7021 11.5975 20.7021Z" fill="#34A853"/>
<path d="M8.62763 16.3539C8.40653 15.6898 8.40653 14.9661 8.62763 14.2945V12.9141H6.86621C6.1071 14.4288 6.1071 16.2196 6.86621 17.7344L8.62763 16.3539Z" fill="#FBBC04"/>
<path d="M11.5975 12.0801C12.3565 12.0651 13.086 12.3561 13.6313 12.8859L15.1493 11.3488C14.184 10.4385 12.9165 9.93853 11.5975 9.95345C9.59321 9.95345 7.75837 11.1026 6.85938 12.9158L8.62052 14.3037C9.04054 13.0277 10.2122 12.0801 11.5975 12.0801Z" fill="#EA4335"/>
</svg>
