<svg width="44" height="31" viewBox="0 0 44 31" fill="none" xmlns="http://www.w3.org/2000/svg">
<rect x="0.5" y="0.5" width="43" height="30" rx="3.5" fill="white"/>
<rect x="0.5" y="0.5" width="43" height="30" rx="3.5" stroke="#F2F4F7"/>
<path fill-rule="evenodd" clip-rule="evenodd" d="M12.2268 10.774C11.8575 11.2285 11.2666 11.587 10.6757 11.5358C10.6018 10.9212 10.8911 10.2682 11.2297 9.86491C11.599 9.39757 12.2453 9.06467 12.7685 9.03906C12.83 9.67925 12.59 10.3066 12.2268 10.774ZM12.762 11.6596C12.2414 11.6284 11.7664 11.8224 11.3827 11.9791C11.1358 12.0799 10.9268 12.1653 10.7677 12.1653C10.5892 12.1653 10.3715 12.0754 10.127 11.9744C9.80673 11.842 9.44053 11.6907 9.05652 11.698C8.17631 11.7108 7.35766 12.2293 6.90832 13.0552C5.98503 14.7069 6.66826 17.1524 7.56078 18.4968C7.99781 19.1626 8.52101 19.8924 9.2104 19.8668C9.51369 19.8549 9.73186 19.7586 9.95765 19.659C10.2176 19.5442 10.4876 19.4251 10.9093 19.4251C11.3163 19.4251 11.5745 19.5411 11.8224 19.6526C12.0581 19.7585 12.2844 19.8602 12.6204 19.854C13.3345 19.8412 13.7838 19.1882 14.2208 18.5224C14.6924 17.8078 14.8997 17.1104 14.9311 17.0046L14.9348 16.9923C14.9341 16.9916 14.9282 16.9888 14.918 16.9839C14.7603 16.9088 13.5553 16.3351 13.5437 14.7965C13.5321 13.5051 14.4995 12.8508 14.6518 12.7478C14.6611 12.7415 14.6673 12.7373 14.6702 12.7351C14.0546 11.7876 13.0944 11.6852 12.762 11.6596ZM17.7031 19.7852V9.80469H21.304C23.1629 9.80469 24.4616 11.1363 24.4616 13.0825C24.4616 15.0286 23.1383 16.373 21.2547 16.373H19.1927V19.7852H17.7031ZM19.1953 11.1094H20.9126C22.2053 11.1094 22.9439 11.8264 22.9439 13.0876C22.9439 14.3487 22.2053 15.0721 20.9065 15.0721H19.1953V11.1094ZM29.3769 18.5847C28.983 19.3657 28.1151 19.8587 27.1794 19.8587C25.7945 19.8587 24.8281 19.0008 24.8281 17.7077C24.8281 16.4273 25.7637 15.6911 27.4934 15.5822L29.3523 15.467V14.9164C29.3523 14.1034 28.8414 13.6617 27.9304 13.6617C27.1794 13.6617 26.6316 14.065 26.5208 14.6796H25.179C25.2221 13.3864 26.3916 12.4453 27.9735 12.4453C29.6785 12.4453 30.7865 13.3736 30.7865 14.814V19.7819H29.4077V18.5847H29.3769ZM27.58 18.6716C26.786 18.6716 26.2812 18.2747 26.2812 17.6666C26.2812 17.0392 26.7675 16.6743 27.697 16.6166L29.3527 16.5078V17.0712C29.3527 18.0059 28.5895 18.6716 27.58 18.6716ZM35.362 20.1701C34.7649 21.9178 34.0817 22.494 32.629 22.494C32.5182 22.494 32.1489 22.4812 32.0627 22.4556V21.2584C32.1551 21.2712 32.3828 21.284 32.4998 21.284C33.1584 21.284 33.5277 20.996 33.7554 20.2469L33.8909 19.8052L31.3672 12.5391H32.9245L34.6787 18.4352H34.7095L36.4638 12.5391H37.978L35.362 20.1701Z" fill="black"/>
</svg>
