<svg width="46" height="32" viewBox="0 0 46 32" fill="none" xmlns="http://www.w3.org/2000/svg">
<rect x="0.5" y="0.5" width="45" height="31" rx="3.5" fill="#FEB4C7"/>
<rect x="0.5" y="0.5" width="45" height="31" rx="3.5" stroke="#F2F4F7"/>
<path fill-rule="evenodd" clip-rule="evenodd" d="M7.02432 20.5062H5.17969V12H7.02432V20.5062ZM11.6275 12H9.82286C9.82286 13.5654 9.14282 15.0021 7.95715 15.9421L7.24219 16.5087L10.0124 20.5065H12.2901L9.74112 16.8279C10.9494 15.5546 11.6275 13.8415 11.6275 12ZM14.5702 20.5022H12.8281V12H14.5702V20.5022ZM19.8317 14.6235V14.9997C19.3616 14.6604 18.7943 14.4609 18.1824 14.4609C16.5629 14.4609 15.25 15.8504 15.25 17.5643C15.25 19.2782 16.5629 20.6676 18.1824 20.6676C18.7943 20.6676 19.3616 20.4682 19.8317 20.1289V20.5048H21.4956V14.6235H19.8317ZM19.8278 17.5677C19.8278 18.4034 19.1528 19.081 18.3201 19.081C17.4875 19.081 16.8125 18.4034 16.8125 17.5677C16.8125 16.732 17.4875 16.0547 18.3201 16.0547C19.1528 16.0547 19.8278 16.732 19.8278 17.5677ZM29.8475 14.4609C29.1828 14.4609 28.5538 14.6793 28.1333 15.2818V14.6195H26.4766V20.5005H28.1536V17.4098C28.1536 16.5154 28.7203 16.0775 29.4026 16.0775C30.1339 16.0775 30.5542 16.5398 30.5542 17.3976V20.5005H32.2161V16.7604C32.2161 15.3917 31.1879 14.4609 29.8475 14.4609ZM37.3865 14.9997V14.6235H39.0503V20.5048H37.3865V20.1289C36.9164 20.4682 36.349 20.6676 35.7371 20.6676C34.1175 20.6676 32.8047 19.2782 32.8047 17.5643C32.8047 15.8504 34.1175 14.4609 35.7371 14.4609C36.349 14.4609 36.9164 14.6604 37.3865 14.9997ZM35.8748 19.081C36.7075 19.081 37.3824 18.4034 37.3824 17.5677C37.3824 16.732 36.7075 16.0547 35.8748 16.0547C35.0421 16.0547 34.3672 16.732 34.3672 17.5677C34.3672 18.4034 35.0421 19.081 35.8748 19.081ZM39.7734 19.5191C39.7734 18.9088 40.2409 18.4141 40.8175 18.4141C41.3941 18.4141 41.8617 18.9088 41.8617 19.5191C41.8617 20.1293 41.3941 20.6241 40.8175 20.6241C40.2409 20.6241 39.7734 20.1293 39.7734 19.5191ZM24.0707 14.625V15.391C24.4042 14.9315 25.0257 14.6253 25.7014 14.6253V16.3367C25.6947 16.3366 25.6883 16.3359 25.6816 16.3359C25.0233 16.3359 24.0745 16.8339 24.0745 17.7603V20.5062H22.3672V14.625H24.0707Z" fill="#17120F"/>
</svg>
