<svg width="44" height="31" viewBox="0 0 44 31" fill="none" xmlns="http://www.w3.org/2000/svg">
<rect x="0.5" y="0.5" width="43" height="30" rx="3.5" fill="white"/>
<rect x="0.5" y="0.5" width="43" height="30" rx="3.5" stroke="#F2F4F7"/>
<path fill-rule="evenodd" clip-rule="evenodd" d="M18.9126 23.8273L19.1983 21.9555L18.5619 21.9402H15.5234L17.6351 8.12761C17.6417 8.08578 17.6629 8.04696 17.694 8.01934C17.7252 7.99171 17.765 7.97656 17.8066 7.97656H22.93C24.631 7.97656 25.8048 8.34163 26.4175 9.06231C26.7049 9.40039 26.8878 9.75378 26.9764 10.1425C27.0693 10.5505 27.0708 11.0379 26.9803 11.6325L26.9737 11.6757V12.0568L27.261 12.2247C27.5029 12.3571 27.6952 12.5086 27.8427 12.6821C28.0884 12.9712 28.2474 13.3387 28.3145 13.7742C28.384 14.2221 28.361 14.7553 28.2474 15.3588C28.1163 16.053 27.9044 16.6576 27.6181 17.1523C27.3549 17.6081 27.0196 17.9863 26.6213 18.2792C26.2411 18.5577 25.7895 18.769 25.2788 18.9043C24.7838 19.0372 24.2196 19.1042 23.6007 19.1042H23.202C22.917 19.1042 22.6401 19.2101 22.4226 19.4C22.2046 19.5938 22.0605 19.8587 22.0163 20.1483L21.9862 20.3169L21.4814 23.6161L21.4586 23.7372C21.4525 23.7755 21.4421 23.7946 21.4268 23.8076C21.4132 23.8194 21.3936 23.8273 21.3745 23.8273H18.9126Z" fill="#28356A"/>
<path fill-rule="evenodd" clip-rule="evenodd" d="M27.5291 11.7188C27.514 11.8196 27.4964 11.9227 27.4768 12.0286C26.8012 15.6073 24.4896 16.8436 21.5374 16.8436H20.0342C19.6731 16.8436 19.3688 17.114 19.3126 17.4815L18.325 23.944C18.2885 24.1853 18.4687 24.4027 18.7046 24.4027H21.3707C21.6864 24.4027 21.9546 24.1661 22.0043 23.8449L22.0305 23.7052L22.5324 20.4189L22.5647 20.2387C22.6138 19.9164 22.8826 19.6796 23.1983 19.6796H23.597C26.18 19.6796 28.2022 18.5978 28.7932 15.467C29.04 14.1592 28.9122 13.0671 28.2589 12.2991C28.0613 12.0676 27.816 11.8753 27.5291 11.7188Z" fill="#298FC2"/>
<path fill-rule="evenodd" clip-rule="evenodd" d="M26.8223 11.4299C26.719 11.3988 26.6126 11.3707 26.5033 11.3453C26.3935 11.3205 26.281 11.2985 26.1652 11.2793C25.7599 11.2117 25.3158 11.1797 24.8401 11.1797H20.8244C20.7254 11.1797 20.6315 11.2027 20.5475 11.2444C20.3622 11.3363 20.2247 11.5171 20.1913 11.7386L19.337 17.3206L19.3125 17.4833C19.3686 17.1159 19.673 16.8455 20.034 16.8455H21.5372C24.4894 16.8455 26.8011 15.6085 27.4767 12.0304C27.4969 11.9245 27.5139 11.8214 27.529 11.7206C27.3581 11.627 27.173 11.547 26.9736 11.4788C26.9244 11.4619 26.8736 11.4456 26.8223 11.4299Z" fill="#22284F"/>
<path fill-rule="evenodd" clip-rule="evenodd" d="M20.1966 11.7367C20.2299 11.5152 20.3675 11.3344 20.5527 11.2431C20.6373 11.2013 20.7307 11.1783 20.8297 11.1783H24.8453C25.321 11.1783 25.7652 11.2105 26.1704 11.278C26.2863 11.2971 26.3987 11.3192 26.5086 11.344C26.6178 11.3692 26.7243 11.3975 26.8276 11.4284C26.8788 11.4442 26.9296 11.4606 26.9793 11.4769C27.1787 11.5451 27.364 11.6257 27.5349 11.7187C27.7359 10.3962 27.5332 9.49575 26.8401 8.68037C26.0759 7.78261 24.6968 7.39844 22.932 7.39844H17.8084C17.448 7.39844 17.1405 7.66881 17.0848 8.03688L14.9508 21.9915C14.9087 22.2676 15.1151 22.5166 15.385 22.5166H18.548L20.1966 11.7367Z" fill="#28356A"/>
</svg>
