<svg width="44" height="31" viewBox="0 0 44 31" fill="none" xmlns="http://www.w3.org/2000/svg">
<rect x="0.5" y="0.5" width="43" height="30" rx="3.5" fill="white"/>
<rect x="0.5" y="0.5" width="43" height="30" rx="3.5" stroke="#F2F4F7"/>
<path fill-rule="evenodd" clip-rule="evenodd" d="M13.9113 20.4827H11.2457L9.24688 12.6476C9.15201 12.2872 8.95056 11.9685 8.65425 11.8184C7.91476 11.441 7.09989 11.1406 6.21094 10.9892V10.6875H10.5049C11.0976 10.6875 11.542 11.1406 11.6161 11.6669L12.6532 17.3186L15.3175 10.6875H17.9089L13.9113 20.4827ZM19.3924 20.4827H16.875L18.9479 10.6875H21.4653L19.3924 20.4827ZM24.7248 13.4004C24.7989 12.8728 25.2433 12.5712 25.7619 12.5712C26.5768 12.4954 27.4644 12.6469 28.2052 13.023L28.6497 10.9141C27.9089 10.6124 27.094 10.4609 26.3545 10.4609C23.9112 10.4609 22.1333 11.8177 22.1333 13.7007C22.1333 15.1333 23.3927 15.8854 24.2816 16.3386C25.2433 16.7904 25.6137 17.092 25.5397 17.5439C25.5397 18.2216 24.7989 18.5232 24.0594 18.5232C23.1704 18.5232 22.2815 18.2973 21.4679 17.9199L21.0234 20.0302C21.9124 20.4063 22.8741 20.5578 23.7631 20.5578C26.5027 20.6322 28.2052 19.2767 28.2052 17.2422C28.2052 14.6801 24.7248 14.53 24.7248 13.4004ZM37.0171 20.4827L35.0183 10.6875H32.8713C32.4268 10.6875 31.9823 10.9892 31.8342 11.441L28.1328 20.4827H30.7243L31.2415 19.0515H34.4256L34.722 20.4827H37.0171ZM33.2319 13.3281L33.9713 17.0198H31.8984L33.2319 13.3281Z" fill="#172B85"/>
</svg>
