<svg width="18" height="18" viewBox="0 0 18 18" fill="none" xmlns="http://www.w3.org/2000/svg">
<path d="M9 1.125C11.0886 1.125 13.0916 1.95469 14.5685 3.43153C16.0453 4.90838 16.875 6.91142 16.875 9C16.875 11.0886 16.0453 13.0916 14.5685 14.5685C13.0916 16.0453 11.0886 16.875 9 16.875C6.91142 16.875 4.90838 16.0453 3.43153 14.5685C1.95469 13.0916 1.125 11.0886 1.125 9C1.125 6.91142 1.95469 4.90838 3.43153 3.43153C4.90838 1.95469 6.91142 1.125 9 1.125ZM9.41738 4.491C8.50163 4.491 7.78387 4.75087 7.25175 5.27063C6.70725 5.79037 6.44737 6.50812 6.44737 7.42387H7.85813C7.85813 6.90412 7.95713 6.49575 8.1675 6.21112C8.40263 5.86462 8.78625 5.70375 9.33075 5.70375C9.7515 5.70375 10.0856 5.81512 10.3207 6.05025C10.5435 6.28537 10.6673 6.60713 10.6673 7.0155C10.6673 7.32487 10.5559 7.62188 10.3331 7.89412L10.1846 8.06738C9.38025 8.78512 8.89762 9.30487 8.73675 9.639C8.5635 9.97312 8.48925 10.3815 8.48925 10.8517V11.025H9.91237V10.8517C9.91237 10.5547 9.97425 10.2949 10.098 10.0474C10.2094 9.82463 10.3703 9.61425 10.593 9.42862C11.187 8.90887 11.5459 8.57475 11.6573 8.451C11.9543 8.055 12.1151 7.54763 12.1151 6.92887C12.1151 6.174 11.8676 5.58 11.3726 5.14687C10.8776 4.70137 10.2218 4.491 9.41738 4.491ZM9.19463 11.6314C8.9423 11.6245 8.69756 11.718 8.514 11.8912C8.42338 11.9766 8.35216 12.0805 8.30519 12.1958C8.25822 12.3111 8.23658 12.4351 8.24175 12.5595C8.24175 12.8317 8.32837 13.0545 8.514 13.2278C8.69618 13.4046 8.94075 13.5024 9.19463 13.5C9.46688 13.5 9.68962 13.4134 9.87525 13.2401C9.9678 13.153 10.041 13.0474 10.09 12.9301C10.139 12.8128 10.1629 12.6866 10.1599 12.5595C10.1622 12.4355 10.1393 12.3122 10.0925 12.1974C10.0457 12.0825 9.976 11.9783 9.88762 11.8912C9.69929 11.7177 9.45066 11.6244 9.19463 11.6314Z" fill="black"/>
</svg>
