<svg width="16" height="16" viewBox="0 0 16 16" fill="none" xmlns="http://www.w3.org/2000/svg">
<path d="M7.99999 14.6666C4.31799 14.6666 1.33333 11.682 1.33333 7.99998C1.33333 4.31798 4.31799 1.33331 7.99999 1.33331C11.682 1.33331 14.6667 4.31798 14.6667 7.99998C14.6667 11.682 11.682 14.6666 7.99999 14.6666ZM7.33333 9.99998V11.3333H8.66666V9.99998H7.33333ZM8.66666 8.90331C9.20244 8.74183 9.6624 8.39328 9.96277 7.92114C10.2631 7.449 10.3839 6.88468 10.3032 6.33096C10.2224 5.77723 9.9454 5.27094 9.52267 4.90428C9.09994 4.53763 8.55958 4.335 7.99999 4.33331C7.46056 4.33327 6.93777 4.52008 6.52052 4.86197C6.10327 5.20387 5.81733 5.67973 5.71133 6.20865L7.01933 6.47065C7.05645 6.28493 7.14554 6.11358 7.27624 5.97652C7.40694 5.83947 7.57387 5.74234 7.75761 5.69645C7.94135 5.65056 8.13435 5.65779 8.31414 5.71729C8.49394 5.7768 8.65313 5.88614 8.77322 6.03259C8.8933 6.17904 8.96932 6.35657 8.99245 6.54454C9.01557 6.73251 8.98485 6.92318 8.90384 7.09437C8.82284 7.26556 8.69489 7.41022 8.53488 7.51153C8.37487 7.61284 8.18938 7.66663 7.99999 7.66665C7.82318 7.66665 7.65361 7.73688 7.52859 7.86191C7.40357 7.98693 7.33333 8.1565 7.33333 8.33331V9.33331H8.66666V8.90331Z" fill="#7D7D7D"/>
</svg>
