<svg width="27" height="27" viewBox="0 0 27 27" fill="none" xmlns="http://www.w3.org/2000/svg">
<path d="M20.7 19.9024L16.4394 15.6418C17.4633 14.4127 17.9738 12.8361 17.8649 11.2401C17.7559 9.64415 17.0359 8.15161 15.8545 7.07299C14.6731 5.99438 13.1214 5.41275 11.5221 5.44908C9.92284 5.48542 8.39913 6.13694 7.26797 7.2681C6.13682 8.39925 5.4853 9.92296 5.44896 11.5222C5.41262 13.1215 5.99426 14.6733 7.07287 15.8546C8.15149 17.036 9.64403 17.7561 11.24 17.865C12.836 17.9739 14.4125 17.4634 15.6417 16.4395L19.9023 20.7001L20.7 19.9024ZM6.59586 11.6735C6.59586 10.6692 6.89365 9.68756 7.45157 8.85257C8.00949 8.01758 8.80249 7.36679 9.73028 6.98248C10.6581 6.59818 11.679 6.49763 12.6639 6.69355C13.6489 6.88946 14.5536 7.37305 15.2637 8.08315C15.9738 8.79324 16.4574 9.69797 16.6533 10.6829C16.8492 11.6678 16.7486 12.6887 16.3643 13.6165C15.98 14.5443 15.3292 15.3373 14.4942 15.8952C13.6593 16.4532 12.6776 16.751 11.6733 16.751C10.3272 16.7495 9.03656 16.214 8.08467 15.2621C7.13278 14.3103 6.59736 13.0196 6.59586 11.6735Z" fill="#111111"/>
</svg>
