<svg width="18" height="18" viewBox="0 0 18 18" fill="none" xmlns="http://www.w3.org/2000/svg">
<path d="M9.60589 17.0357C9.63157 17.0304 9.65644 17.0218 9.67982 17.0099C9.70496 16.9973 9.72962 16.9836 9.75375 16.9691L15.5366 13.6751C15.8815 13.4781 16.1434 13.2528 16.3231 12.9995C16.5031 12.7456 16.5928 12.3505 16.5928 11.8141V6.06048C16.5928 5.83388 16.5732 5.64681 16.5336 5.49895L9.60589 9.45798V17.0357ZM8.59404 17.0357V9.45798L1.66629 5.49895C1.62643 5.64681 1.60714 5.83388 1.60714 6.06048V11.8141C1.60714 12.3508 1.69811 12.7459 1.88036 12.9995C2.06261 13.2528 2.32361 13.4784 2.66336 13.6751L8.45357 16.9691C8.478 16.9839 8.50147 16.9974 8.52364 17.0099C8.54552 17.0221 8.56948 17.0308 8.59404 17.0357ZM9.1035 8.57148L12.257 6.78434L5.26275 2.78866L2.55214 4.33216C2.385 4.4257 2.24679 4.52181 2.13846 4.62016L9.1035 8.57148ZM13.2837 6.20063L16.0608 4.62016C15.9361 4.50994 15.7999 4.41339 15.6545 4.33216L10.4406 1.36313C9.98261 1.0973 9.53679 0.964233 9.1035 0.964233C8.66539 0.964233 8.21732 1.0973 7.75961 1.3628L6.26014 2.21234L13.2837 6.20063Z" fill="black"/>
</svg>
