<svg width="24" height="24" viewBox="0 0 24 24" fill="none" xmlns="http://www.w3.org/2000/svg">
<path fill-rule="evenodd" clip-rule="evenodd" d="M11.9742 2.53082C11.3652 2.53082 10.7812 2.77273 10.3506 3.20333C9.91999 3.63393 9.67808 4.21794 9.67808 4.8269V5.09223C10.2465 5.08202 10.87 5.08202 11.5558 5.08202H12.3936C13.0773 5.08202 13.7018 5.08202 14.2713 5.09223V4.8269C14.2713 4.52529 14.2118 4.22663 14.0964 3.94799C13.9809 3.66935 13.8117 3.41619 13.5984 3.20297C13.3851 2.98974 13.1318 2.82064 12.8532 2.70531C12.5745 2.58998 12.2758 2.53069 11.9742 2.53082ZM15.801 5.16162V4.8269C15.801 3.81197 15.3978 2.83861 14.6801 2.12094C13.9625 1.40328 12.9891 1.0001 11.9742 1.0001C10.9592 1.0001 9.98587 1.40328 9.26821 2.12094C8.55054 2.83861 8.14736 3.81197 8.14736 4.8269V5.16162C8.00143 5.17387 7.86163 5.18815 7.72488 5.2055C6.6942 5.33306 5.84516 5.60043 5.12266 6.19945C4.40118 6.79847 3.98176 7.58424 3.66643 8.57411C3.36029 9.53336 3.12966 10.7651 2.83984 12.3152L2.81841 12.4274C2.40818 14.6143 2.0857 16.3379 2.0255 17.6962C1.96427 19.0891 2.17245 20.2423 2.95822 21.1883C3.74399 22.1353 4.83896 22.5516 6.21865 22.7486C7.56569 22.9404 9.31785 22.9404 11.5435 22.9404H12.4058C14.6305 22.9404 16.3837 22.9404 17.7297 22.7486C19.1094 22.5516 20.2054 22.1353 20.9911 21.1883C21.7769 20.2423 21.983 19.0891 21.9228 17.6962C21.8636 16.3379 21.5402 14.6143 21.1299 12.4274L21.1095 12.3152C20.8187 10.7651 20.587 9.53234 20.2829 8.57411C19.9666 7.58424 19.5482 6.79847 18.8257 6.19945C18.1042 5.60043 17.2541 5.33204 16.2234 5.2055C16.0829 5.18826 15.9421 5.17364 15.801 5.16162ZM7.91265 6.725C7.04014 6.83215 6.51255 7.03522 6.10028 7.3781C5.68902 7.71894 5.39206 8.19959 5.1247 9.03843C4.85223 9.89563 4.63691 11.0365 4.33484 12.6479C3.91032 14.9103 3.60928 16.5257 3.5552 17.7635C3.50213 18.9779 3.69806 19.682 4.13585 20.2117C4.57466 20.7393 5.23083 21.0607 6.43499 21.2322C7.65957 21.4077 9.30459 21.4097 11.6068 21.4097H12.3415C14.6448 21.4097 16.2877 21.4077 17.5133 21.2332C18.7175 21.0607 19.3737 20.7393 19.8125 20.2117C20.2513 19.6831 20.4462 18.9789 20.3942 17.7625C20.339 16.5267 20.038 14.9103 19.6135 12.6479C19.3114 11.0355 19.0971 9.89665 18.8236 9.03843C18.5563 8.19959 18.2603 7.71894 17.8481 7.37708C17.4358 7.03522 16.9092 6.83215 16.0357 6.72398C15.1417 6.61376 13.9814 6.61274 12.3415 6.61274H11.6068C9.96688 6.61274 8.80659 6.61376 7.91265 6.725Z" fill="black"/>
<path d="M16.0561 14.0113C16.0561 16.2657 14.2285 18.0932 11.9741 18.0932C9.71975 18.0932 7.89221 16.2657 7.89221 14.0113" stroke="black" stroke-width="1.64934"/>
</svg>
