<svg width="14" height="13" viewBox="0 0 14 13" fill="none" xmlns="http://www.w3.org/2000/svg">
<path d="M3.16109 12.8554C2.78281 13.0835 2.31613 12.745 2.41569 12.3145L3.30033 8.49017C3.34207 8.30973 3.28065 8.12101 3.14072 7.9997L0.173159 5.4269C-0.160606 5.13753 0.017369 4.58919 0.45745 4.55099L4.38061 4.21043C4.5652 4.19441 4.72579 4.07762 4.79792 3.90696L6.32012 0.305344C6.49219 -0.10179 7.06916 -0.101789 7.24123 0.305344L8.76342 3.90696C8.83555 4.07762 8.99614 4.19441 9.18073 4.21043L13.1039 4.55099C13.544 4.58919 13.7219 5.13753 13.3882 5.4269L10.4206 7.9997C10.2807 8.12101 10.2193 8.30973 10.261 8.49017L11.1457 12.3145C11.2452 12.745 10.7785 13.0835 10.4002 12.8554L7.03894 10.8277C6.88009 10.7319 6.68125 10.7319 6.5224 10.8277L3.16109 12.8554Z" fill="#F1C40F"/>
</svg>
