<svg width="24" height="24" viewBox="0 0 24 24" fill="none" xmlns="http://www.w3.org/2000/svg">
<path d="M21.8757 11.6671C21.8763 11.9147 21.8128 12.1582 21.6914 12.374C21.57 12.5898 21.3948 12.7705 21.1829 12.8985L8.05065 20.9321C7.82925 21.0677 7.57566 21.1417 7.31609 21.1465C7.05651 21.1513 6.80036 21.0867 6.57409 20.9594C6.34997 20.8341 6.16327 20.6514 6.0332 20.43C5.90312 20.2086 5.83436 19.9566 5.83398 19.6998V3.63444C5.83436 3.37767 5.90312 3.12563 6.0332 2.90424C6.16327 2.68286 6.34997 2.50011 6.57409 2.3748C6.80036 2.24752 7.05651 2.18294 7.31609 2.18775C7.57566 2.19256 7.82925 2.26657 8.05065 2.40215L21.1829 10.4357C21.3948 10.5638 21.57 10.7445 21.6914 10.9602C21.8128 11.176 21.8763 11.4195 21.8757 11.6671Z" fill="white"/>
</svg>
