<svg width="20" height="20" viewBox="0 0 20 20" fill="none" xmlns="http://www.w3.org/2000/svg">
<path d="M7.47083 15C7.37177 15.6952 7.02518 16.3314 6.49473 16.7916C5.96429 17.2518 5.2856 17.5052 4.58333 17.5052C3.88107 17.5052 3.20238 17.2518 2.67194 16.7916C2.14149 16.3314 1.7949 15.6952 1.69583 15H0.833334V4.99996C0.833334 4.77895 0.921131 4.56698 1.07741 4.4107C1.23369 4.25442 1.44565 4.16663 1.66667 4.16663H13.3333C13.5543 4.16663 13.7663 4.25442 13.9226 4.4107C14.0789 4.56698 14.1667 4.77895 14.1667 4.99996V6.66663H16.6667L19.1667 10.0466V15H17.4708C17.3705 15.6942 17.0234 16.3291 16.4931 16.7882C15.9628 17.2474 15.2848 17.5001 14.5833 17.5001C13.8819 17.5001 13.2039 17.2474 12.6736 16.7882C12.1433 16.3291 11.7962 15.6942 11.6958 15H7.47083ZM12.5 5.83329H2.5V12.5416C2.8288 12.206 3.23384 11.9547 3.68063 11.8092C4.12742 11.6638 4.60275 11.6284 5.06615 11.7061C5.52955 11.7839 5.96731 11.9724 6.34218 12.2557C6.71704 12.539 7.0179 12.9087 7.21917 13.3333H11.9475C12.0875 13.0391 12.275 12.7716 12.5 12.5416V5.83329ZM14.1667 10.8333H17.5V10.5958L15.8267 8.33329H14.1667V10.8333ZM14.5833 15.8333C14.915 15.8333 15.233 15.7016 15.4675 15.4671C15.702 15.2326 15.8338 14.9145 15.8338 14.5829C15.8338 14.2512 15.702 13.9332 15.4675 13.6987C15.233 13.4642 14.915 13.3325 14.5833 13.3325C14.2517 13.3325 13.9337 13.4642 13.6992 13.6987C13.4647 13.9332 13.3329 14.2512 13.3329 14.5829C13.3329 14.9145 13.4647 15.2326 13.6992 15.4671C13.9337 15.7016 14.2517 15.8333 14.5833 15.8333ZM5.83333 14.5833C5.83333 14.4191 5.801 14.2566 5.73818 14.1049C5.67537 13.9533 5.58329 13.8155 5.46722 13.6994C5.35114 13.5833 5.21335 13.4913 5.06169 13.4284C4.91003 13.3656 4.74749 13.3333 4.58333 13.3333C4.41918 13.3333 4.25664 13.3656 4.10498 13.4284C3.95332 13.4913 3.81552 13.5833 3.69945 13.6994C3.58338 13.8155 3.4913 13.9533 3.42848 14.1049C3.36567 14.2566 3.33333 14.4191 3.33333 14.5833C3.33333 14.9148 3.46503 15.2328 3.69945 15.4672C3.93387 15.7016 4.25181 15.8333 4.58333 15.8333C4.91486 15.8333 5.2328 15.7016 5.46722 15.4672C5.70164 15.2328 5.83333 14.9148 5.83333 14.5833Z" fill="#1D211E"/>
</svg>
